<?xml version="1.0" encoding="UTF-8"?>
<svg version="1.1" xmlns="http://www.w3.org/2000/svg" width="157" height="32">
<path d="M0 0 C4.61719793 2.23973966 8.16783997 5.12011223 10 10 C10.66071926 15.51623758 10.73198334 20.4234205 8.375 25.5 C3.8385263 30.27523547 0.69994294 32.25590151 -5.9375 32.5625 C-10.78360658 32.3941489 -13.82065738 31.60939675 -17.59765625 28.58203125 C-22.03474417 23.57640282 -22.58635791 19.46828479 -22.41796875 12.94921875 C-21.81040874 8.66222989 -20.22620183 5.85976903 -17 3 C-11.57650198 -0.8660746 -6.46706291 -1.04577343 0 0 Z M-14 5 C-13.0925 5 -12.185 5 -11.25 5 C-6.83333333 5 -2.41666667 5 2 5 C0.26929299 2.84800246 -0.60619233 2.06606642 -3.375 1.6015625 C-4.24125 1.60929688 -5.1075 1.61703125 -6 1.625 C-6.86625 1.61726562 -7.7325 1.60953125 -8.625 1.6015625 C-11.39380767 2.06606642 -12.26929299 2.84800246 -14 5 Z M-14 7 C-14.33 8.32 -14.66 9.64 -15 11 C-13.68 9.68 -12.36 8.36 -11 7 C-11.99 7 -12.98 7 -14 7 Z M-1 7 C0.32 8.32 1.64 9.64 3 11 C2.67 9.68 2.34 8.36 2 7 C1.01 7 0.02 7 -1 7 Z M-18 8 C-20.14553377 11.21830065 -20.29583868 12.26786507 -20.3125 16 C-20.32925781 16.86625 -20.34601562 17.7325 -20.36328125 18.625 C-19.93703947 21.4116129 -19.16168863 22.26608617 -17 24 C-17 23.0925 -17 22.185 -17 21.25 C-17 16.83333333 -17 12.41666667 -17 8 C-17.33 8 -17.66 8 -18 8 Z M-8 8 C-9.05016013 9.14034008 -10.06590196 10.31256404 -11.0625 11.5 C-11.88427734 12.47453125 -11.88427734 12.47453125 -12.72265625 13.46875 C-13.14417969 13.9740625 -13.56570313 14.479375 -14 15 C-11.69 15 -9.38 15 -7 15 C-7 12.69 -7 10.38 -7 8 C-7.33 8 -7.66 8 -8 8 Z M-5 8 C-5 10.31 -5 12.62 -5 15 C-2.69 15 -0.38 15 2 15 C1.02433888 13.83040013 0.044375 12.66438823 -0.9375 11.5 C-1.75541016 10.52546875 -1.75541016 10.52546875 -2.58984375 9.53125 C-3.05519531 9.0259375 -3.52054688 8.520625 -4 8 C-4.33 8 -4.66 8 -5 8 Z M5 8 C5 8.9075 5 9.815 5 10.75 C5 15.16666667 5 19.58333333 5 24 C7.15199754 22.26929299 7.93393358 21.39380767 8.3984375 18.625 C8.39070313 17.75875 8.38296875 16.8925 8.375 16 C8.38273437 15.13375 8.39046875 14.2675 8.3984375 13.375 C7.93393358 10.60619233 7.15199754 9.73070701 5 8 Z M-14 17 C-13.02433888 18.16959987 -12.044375 19.33561177 -11.0625 20.5 C-10.51722656 21.1496875 -9.97195312 21.799375 -9.41015625 22.46875 C-8.94480469 22.9740625 -8.47945312 23.479375 -8 24 C-7.67 24 -7.34 24 -7 24 C-7 21.69 -7 19.38 -7 17 C-9.31 17 -11.62 17 -14 17 Z M-5 17 C-5 19.31 -5 21.62 -5 24 C-3.83040013 23.02433888 -2.66438823 22.044375 -1.5 21.0625 C-0.8503125 20.51722656 -0.200625 19.97195312 0.46875 19.41015625 C0.9740625 18.94480469 1.479375 18.47945312 2 18 C2 17.67 2 17.34 2 17 C-0.31 17 -2.62 17 -5 17 Z M-15 21 C-14.67 22.32 -14.34 23.64 -14 25 C-13.01 24.67 -12.02 24.34 -11 24 C-12.32 23.01 -13.64 22.02 -15 21 Z M2 21 C0.515 22.98 0.515 22.98 -1 25 C0.32 24.67 1.64 24.34 3 24 C2.67 23.01 2.34 22.02 2 21 Z M-14 27 C-12.34831388 28.99996498 -11.47897923 29.91796488 -8.87890625 30.36328125 C-7.73228516 30.33814453 -7.73228516 30.33814453 -6.5625 30.3125 C-5.80066406 30.30863281 -5.03882813 30.30476563 -4.25390625 30.30078125 C-1.80470873 29.9739386 -0.13299083 29.21954601 2 28 C2 27.67 2 27.34 2 27 C1.0925 27 0.185 27 -0.75 27 C-5.16666667 27 -9.58333333 27 -14 27 Z " fill="#FFFFFF" transform="translate(22,0)"/>
<path d="M0 0 C2.475 0.495 2.475 0.495 5 1 C5.33 0.67 5.66 0.34 6 0 C8.8125 -0.375 8.8125 -0.375 12 0 C15.14595819 2.73201633 15.91970305 4.35762437 16.4375 8.5 C15.97164869 12.22681047 15.43225399 14.14839188 13 17 C9.68027502 18.16190374 8.37151546 18.12383849 5 17 C4.67 18.98 4.34 20.96 4 23 C2.68 23 1.36 23 0 23 C0 15.41 0 7.82 0 0 Z M6 4 C3.71861055 6.75698184 3.71861055 6.75698184 4.1875 9.5625 C4.83372442 12.33255117 4.83372442 12.33255117 8 14 C8.99 13.34 9.98 12.68 11 12 C11.25660094 8.92078868 11.39431504 6.78863007 10 4 C8.68 4 7.36 4 6 4 Z " fill="#FFFFFF" transform="translate(44,7)"/>
<path d="M0 0 C2.375 1.0625 2.375 1.0625 4 3 C4.75 6.6875 4.75 6.6875 5 10 C-0.445 10.495 -0.445 10.495 -6 11 C-6 11.66 -6 12.32 -6 13 C-2.7 12.67 0.6 12.34 4 12 C3 16 3 16 1.375 17.3125 C-2.04115573 18.30138718 -4.56770231 17.81127036 -8 17 C-10.26465128 15.33296503 -10.91683872 14.44877122 -11.43359375 11.66015625 C-11.44399112 4.74590508 -11.44399112 4.74590508 -9.4375 1.375 C-6.06680993 -0.52641491 -3.81180865 -0.47647608 0 0 Z M-5 4 C-5.99 5.485 -5.99 5.485 -7 7 C-4.69 7 -2.38 7 0 7 C-0.33 6.01 -0.66 5.02 -1 4 C-2.32 4 -3.64 4 -5 4 Z " fill="#FFFFFF" transform="translate(140,7)"/>
<path d="M0 0 C2.0078125 0.328125 2.0078125 0.328125 3.75390625 1.39453125 C5.68951292 4.37934528 5.29174902 7.01176466 5.1953125 10.515625 C5.16824219 11.78792969 5.14117187 13.06023438 5.11328125 14.37109375 C5.07847656 15.34691406 5.04367188 16.32273437 5.0078125 17.328125 C3.42652221 17.55143699 1.84260161 17.75617144 0.2578125 17.953125 C-1.06476563 18.12714844 -1.06476563 18.12714844 -2.4140625 18.3046875 C-5.27070989 18.33065702 -6.65981326 17.95499552 -8.9921875 16.328125 C-9.9296875 13.390625 -9.9296875 13.390625 -9.9921875 10.328125 C-8.31999058 7.40178039 -6.55180345 7.18630641 -3.3046875 6.140625 C-2.2115625 5.8725 -1.1184375 5.604375 0.0078125 5.328125 C-1.6628125 5.6065625 -1.6628125 5.6065625 -3.3671875 5.890625 C-6.9921875 6.328125 -6.9921875 6.328125 -8.9921875 5.328125 C-6.55033823 0.28163651 -5.79214179 0.21373217 0 0 Z M-4.9921875 11.328125 C-4.6621875 12.318125 -4.3321875 13.308125 -3.9921875 14.328125 C-2.00727108 14.06136296 -2.00727108 14.06136296 0.0078125 13.328125 C0.3378125 12.338125 0.6678125 11.348125 1.0078125 10.328125 C-2.7685807 10.0299826 -2.7685807 10.0299826 -4.9921875 11.328125 Z " fill="#FFFFFF" transform="translate(77.9921875,6.671875)"/>
<path d="M0 0 C12.41204819 -0.49156627 12.41204819 -0.49156627 14.90625 1.59375 C16.35457983 4.78007562 16.29208895 7.26370169 16.1875 10.75 C16.16042969 11.92046875 16.13335937 13.0909375 16.10546875 14.296875 C16.07066406 15.18890625 16.03585938 16.0809375 16 17 C14.35 17 12.7 17 11 17 C10.67 13.04 10.34 9.08 10 5 C8.68 5.33 7.36 5.66 6 6 C5.67 9.63 5.34 13.26 5 17 C3.35 17 1.7 17 0 17 C0 11.39 0 5.78 0 0 Z " fill="#FFFFFF" transform="translate(103,7)"/>
<path d="M0 0 C11.35368043 -0.36624776 11.35368043 -0.36624776 13.875 1.0625 C15.62336781 4.0735779 15.28209401 6.75058437 15.1875 10.1875 C15.16042969 11.45980469 15.13335937 12.73210938 15.10546875 14.04296875 C15.07066406 15.01878906 15.03585938 15.99460937 15 17 C13.35 17 11.7 17 10 17 C9.67 13.04 9.34 9.08 9 5 C8.01 5 7.02 5 6 5 C4.78306124 7.43387753 4.68040104 9.41838846 4.4375 12.125 C4.35371094 13.03507812 4.26992187 13.94515625 4.18359375 14.8828125 C4.12300781 15.58148438 4.06242187 16.28015625 4 17 C2.68 17 1.36 17 0 17 C0 11.39 0 5.78 0 0 Z " fill="#FFFFFF" transform="translate(86,7)"/>
<path d="M0 0 C3.63 0 7.26 0 11 0 C11 1.32 11 2.64 11 4 C9.35 4.66 7.7 5.32 6 6 C5.67 9.63 5.34 13.26 5 17 C3.35 17 1.7 17 0 17 C0 11.39 0 5.78 0 0 Z " fill="#FFFFFF" transform="translate(146,7)"/>
<path d="M0 0 C1.65 0 3.3 0 5 0 C5 7.26 5 14.52 5 22 C3.35 22 1.7 22 0 22 C0 14.74 0 7.48 0 0 Z " fill="#FFFFFF" transform="translate(62,2)"/>
<path d="M0 0 C1.67542976 0.28604898 3.34385343 0.61781233 5 1 C4.67 2.32 4.34 3.64 4 5 C2.68 5 1.36 5 0 5 C-0.5625 3.0625 -0.5625 3.0625 -1 1 C-0.67 0.67 -0.34 0.34 0 0 Z " fill="#FFFFFF" transform="translate(122,19)"/>
</svg>
